# xmcd
#
# Track frame offsets:
#	150
#	19314
#	37948
#	62207
#	84227
#	102895
#	119278
#	138640
#	158577
#	180450
#	203846
#
# Disc length: 2993 seconds
#
# Revision: 0
# Processed by: cddbd v1.5PL3 Copyright (c) Steve Scherf et al.
# Submitted via: dBpowerAMP V4.0
#
DISCID=890baf0b
DTITLE=Johnnie Taylor, Jr - Doing My Own Thing
DYEAR=1900
DGENRE=Blues
TTITLE0=A Woman Knows How to Please Herself
TTITLE1=Don't Hit Her, Quit Her
TTITLE2=Never Take Your Love for Granted
TTITLE3=Hold on Tight
TTITLE4=Ugh Ugh Trouble
TTITLE5=One More Chance
TTITLE6=I Been Watching You
TTITLE7=It's Getting Harder
TTITLE8=The Best Part of a Woman
TTITLE9=Respect Me and My Family
TTITLE10=I'm an Afternoon Lover
EXTD=
EXTT0=
EXTT1=
EXTT2=
EXTT3=
EXTT4=
EXTT5=
EXTT6=
EXTT7=
EXTT8=
EXTT9=
EXTT10=
PLAYORDER=
